<?xml version="1.0" encoding="utf-8"?>
<!-- Generator: Adobe Illustrator 25.2.1, SVG Export Plug-In . SVG Version: 6.00 Build 0)  -->
<svg version="1.1" id="Layer_1" xmlns="http://www.w3.org/2000/svg" xmlns:xlink="http://www.w3.org/1999/xlink" x="0px" y="0px"
	 viewBox="0 0 416.3 416.3" style="enable-background:new 0 0 416.3 416.3;" xml:space="preserve">
<style type="text/css">
	.st0{fill:#E7E5E9;}
</style>
<g id="Layer_2_1_">
	<g id="Layer_1-2">
		<path class="st0" d="M29.1,224.2l-6,0.1"/>
		<path class="st0" d="M324.3,231.5c11.8-2.9,24-4.1,36.1-3.4c4.6,0.2,9,1,12-4.9c7.5-14.6,16-28.7,23.8-43.1c1.1-2,1-5,0.7-7.5
			c-1.8-17.1-6.4-33.6-12.2-49.7C363.3,63.6,317.2,29,261.8,8.1c-23.9-9-52.8-10-79.8-5.3c-48.3,8.4-88.9,29.5-120.7,68.4
			C39.5,97.7,26.8,127,19.8,159.7c-1.4,6.8-0.3,11,7.5,13.2c14.2,4,22.8,14.7,25.6,28.5c1.7,7.9,5.3,8.3,11.4,8.3
			c20.8-0.2,41.7-0.5,62.5,0c8.7,0.2,11-2.1,9.4-11c-5.3-30.7,9.6-55.6,31.1-72.7c14-11.1,36-14.4,56.4-9
			c28.8,7.6,48.4,25.1,56,53.9c8.2,31-2,57.1-25.3,78.4c-6.1,3.2-11.8,8.3-18.3,9.4c-17.5,3-27.6,15-37.7,27.5
			c-3.3,4-6.7,8-10.2,11.8c-28.8,31.2-29.2,75-1.1,106.6c5.8,7,14.4,11.2,23.5,11.5c30.4,1.9,58.2-6.4,84.8-20.3
			c7.2-4,15.4-5.8,23.5-5.3c16.4,0.9,32.9,0.3,49.3,0.1c7.8-0.1,15-2.8,17.7-10.6c2.5-7.2-3.3-12-7.7-16.7
			c-21.7-23.6-43.2-47.4-65.3-70.6c-11.1-11.7-17.9-24.3-14.5-40.8C304.4,241.4,312.9,234.4,324.3,231.5z"/>
		<path class="st0" d="M180.7,261.2c-12.3-3.4-18.8-12.5-28.2-17.2c-34-1-67.9-1.8-101.8-0.4c-8.5,2.5-12.3,12.1-21,14.3
			c-10.8,2.8-11,9.2-8.4,18.6c18.6,66.9,65,106.4,129.6,131.2C119,350.2,142.1,304.4,180.7,261.2z"/>
	</g>
</g>
</svg>
